<svg xmlns="http://www.w3.org/2000/svg" width="44" height="44" fill="none"><circle cx="22" cy="22" r="22" fill="#050505"/><path fill="#F8F8F8" fill-opacity=".5" d="M16.6 22.71a.999.999 0 0 1 0-1.42l4.59-4.58a1.001 1.001 0 1 0-1.41-1.42l-4.59 4.59a3 3 0 0 0 0 4.24l4.59 4.59a1 1 0 0 0 1.41-1.42l-4.59-4.58Z"/><path fill="#F8F8F8" fill-opacity=".5" d="M23.6 22.71a.999.999 0 0 1 0-1.42l4.59-4.58a1.001 1.001 0 1 0-1.41-1.42l-4.59 4.59a3 3 0 0 0 0 4.24l4.59 4.59a1 1 0 0 0 1.41-1.42l-4.59-4.58Z"/></svg>