<svg width="92" height="17" fill="none" xmlns="http://www.w3.org/2000/svg"><path d="M6.234 3.182v1.79H.59v-1.79h5.644ZM1.984.83h2.313v9.217c0 .311.047.55.141.716a.76.76 0 0 0 .384.332c.157.06.332.09.524.09.145 0 .277-.011.396-.032.124-.022.217-.04.281-.058l.39 1.81c-.123.042-.3.089-.53.14a4.337 4.337 0 0 1-.831.09c-.58.016-1.102-.071-1.566-.263a2.437 2.437 0 0 1-1.106-.908c-.269-.409-.4-.92-.396-1.534V.83Zm8.29 12.368c-.621 0-1.182-.11-1.68-.332a2.744 2.744 0 0 1-1.177-.997c-.285-.44-.428-.98-.428-1.624 0-.554.102-1.012.307-1.374.205-.362.484-.652.837-.87A4.224 4.224 0 0 1 9.33 7.51c.447-.115.91-.198 1.387-.25.575-.059 1.042-.112 1.4-.159.358-.051.617-.128.78-.23.166-.107.249-.27.249-.492v-.039c0-.481-.143-.854-.428-1.118-.286-.264-.697-.396-1.234-.396-.567 0-1.017.123-1.349.37-.328.247-.55.54-.665.876l-2.16-.307c.17-.596.452-1.095.844-1.496a3.67 3.67 0 0 1 1.438-.907 5.501 5.501 0 0 1 1.879-.307c.473 0 .944.055 1.413.166.468.111.897.294 1.285.55.387.251.698.594.933 1.029.238.435.358.978.358 1.63V13h-2.225v-1.349h-.076c-.141.273-.34.529-.595.767a2.86 2.86 0 0 1-.952.57c-.38.14-.825.21-1.336.21Zm.602-1.7c.464 0 .867-.092 1.208-.275.34-.188.603-.435.786-.742.187-.306.281-.64.281-1.003V8.321c-.072.06-.196.115-.37.166a5.25 5.25 0 0 1-.576.134c-.213.039-.424.073-.633.103l-.543.076a4.042 4.042 0 0 0-.927.23 1.54 1.54 0 0 0-.645.448c-.158.187-.237.43-.237.729 0 .426.156.747.467.965.31.217.707.326 1.189.326Zm13.95-5.721-2.11.23a1.693 1.693 0 0 0-.313-.6 1.556 1.556 0 0 0-.588-.455c-.248-.115-.55-.172-.908-.172-.482 0-.886.104-1.215.313-.323.209-.483.48-.479.812a.85.85 0 0 0 .313.697c.218.179.576.326 1.074.44l1.675.359c.929.2 1.62.517 2.07.952.457.435.687 1.004.691 1.707a2.669 2.669 0 0 1-.543 1.636c-.354.469-.846.835-1.477 1.1-.63.264-1.355.396-2.173.396-1.202 0-2.169-.252-2.902-.755-.733-.507-1.17-1.212-1.31-2.115l2.256-.218c.102.444.32.778.652 1.004.332.226.765.339 1.298.339.55 0 .99-.113 1.323-.339.337-.226.505-.505.505-.837a.872.872 0 0 0-.326-.697c-.213-.183-.546-.324-.997-.422L19.667 8.8c-.942-.196-1.639-.526-2.09-.99-.452-.47-.676-1.061-.671-1.777-.005-.605.16-1.13.492-1.573.336-.447.803-.792 1.4-1.035.6-.247 1.293-.371 2.077-.371 1.15 0 2.056.245 2.717.735.664.49 1.076 1.153 1.233 1.988Zm6.301-2.595v1.79h-5.644v-1.79h5.644ZM26.877.83h2.313v9.217c0 .311.047.55.14.716a.76.76 0 0 0 .384.332c.158.06.333.09.524.09.145 0 .277-.011.397-.032a3.46 3.46 0 0 0 .281-.058l.39 1.81c-.124.042-.3.089-.53.14a4.336 4.336 0 0 1-.832.09c-.58.016-1.101-.071-1.566-.263a2.436 2.436 0 0 1-1.105-.908c-.269-.409-.401-.92-.397-1.534V.83Zm6.903 15.852c-.315 0-.607-.026-.875-.077a3.248 3.248 0 0 1-.633-.166l.537-1.803c.336.098.637.145.901.141.264-.004.496-.087.697-.25.204-.157.377-.421.518-.792l.198-.53-3.56-10.023h2.454l2.263 7.415h.102l2.27-7.415h2.46l-3.931 11.007c-.183.52-.426.965-.729 1.336a2.96 2.96 0 0 1-1.112.856c-.435.2-.955.3-1.56.3Z" fill="#9BB537"/><path d="M46.896 3.182v1.79h-5.644v-1.79h5.644ZM42.646.83h2.313v9.217c0 .311.047.55.14.716a.76.76 0 0 0 .384.332c.158.06.333.09.525.09.144 0 .276-.011.396-.032a3.47 3.47 0 0 0 .281-.058l.39 1.81c-.124.042-.3.089-.53.14a4.337 4.337 0 0 1-.832.09c-.58.016-1.101-.071-1.566-.263a2.436 2.436 0 0 1-1.105-.908c-.269-.409-.401-.92-.397-1.534V.83ZM48.11 13V3.182h2.244v1.636h.102c.179-.567.486-1.003.92-1.31.44-.311.94-.467 1.503-.467.127 0 .27.007.428.02.162.008.296.023.403.044v2.129a2.434 2.434 0 0 0-.467-.09 4.295 4.295 0 0 0-.607-.045 2.34 2.34 0 0 0-1.138.275 2.012 2.012 0 0 0-.786.748c-.192.32-.288.688-.288 1.106V13h-2.314Zm10.36.192c-.985 0-1.835-.205-2.551-.614a4.155 4.155 0 0 1-1.643-1.751c-.383-.759-.575-1.652-.575-2.679 0-1.01.192-1.896.575-2.659a4.35 4.35 0 0 1 1.624-1.79c.694-.43 1.51-.645 2.448-.645.605 0 1.176.098 1.713.294.541.192 1.018.49 1.432.895.417.405.745.92.984 1.547.239.622.358 1.363.358 2.224v.71h-8.048v-1.56h5.83a2.49 2.49 0 0 0-.288-1.182 2.091 2.091 0 0 0-.786-.825c-.332-.2-.72-.3-1.163-.3-.473 0-.889.115-1.247.345a2.378 2.378 0 0 0-.837.895c-.196.366-.296.769-.3 1.208v1.361c0 .571.104 1.061.313 1.47.209.405.5.716.875.934.375.213.814.32 1.317.32a2.8 2.8 0 0 0 .914-.141c.273-.098.51-.241.71-.429.2-.187.351-.42.454-.696l2.16.242a3.367 3.367 0 0 1-.78 1.496c-.379.422-.865.75-1.457.985-.593.23-1.27.345-2.033.345Zm8.428.006c-.622 0-1.183-.11-1.681-.332a2.744 2.744 0 0 1-1.177-.997c-.285-.44-.428-.98-.428-1.624 0-.554.102-1.012.307-1.374.205-.362.484-.652.837-.87a4.225 4.225 0 0 1 1.196-.492c.447-.115.91-.198 1.387-.25a54.65 54.65 0 0 0 1.4-.159c.358-.051.618-.128.78-.23.166-.107.249-.27.249-.492v-.039c0-.481-.143-.854-.428-1.118-.286-.264-.697-.396-1.234-.396-.567 0-1.016.123-1.349.37-.328.247-.55.54-.665.876l-2.16-.307a3.45 3.45 0 0 1 .844-1.496 3.671 3.671 0 0 1 1.438-.907 5.502 5.502 0 0 1 1.88-.307c.472 0 .943.055 1.412.166.468.111.897.294 1.284.55.388.251.7.594.934 1.029.238.435.358.978.358 1.63V13h-2.225v-1.349h-.076c-.141.273-.34.529-.595.767a2.859 2.859 0 0 1-.952.57c-.38.14-.825.21-1.336.21Zm.6-1.7c.465 0 .868-.092 1.209-.275.34-.188.603-.435.786-.742.187-.306.281-.64.281-1.003V8.321c-.072.06-.196.115-.37.166-.171.051-.363.096-.576.134-.213.039-.424.073-.633.103l-.543.076a4.04 4.04 0 0 0-.927.23 1.54 1.54 0 0 0-.645.448c-.158.187-.237.43-.237.729 0 .426.156.747.467.965.31.217.707.326 1.189.326Zm11.093-8.316v1.79h-5.644v-1.79h5.644ZM74.342.83h2.313v9.217c0 .311.047.55.141.716a.76.76 0 0 0 .383.332c.158.06.333.09.525.09.145 0 .277-.011.396-.032.124-.022.217-.04.281-.058l.39 1.81c-.124.042-.3.089-.53.14a4.338 4.338 0 0 1-.831.09c-.58.016-1.102-.071-1.566-.263a2.437 2.437 0 0 1-1.106-.908c-.269-.409-.4-.92-.397-1.534V.83Zm13.085 4.947-2.11.23a1.696 1.696 0 0 0-.313-.6 1.556 1.556 0 0 0-.588-.455c-.247-.115-.55-.172-.908-.172-.481 0-.886.104-1.214.313-.324.209-.484.48-.48.812a.85.85 0 0 0 .314.697c.217.179.575.326 1.073.44l1.675.359c.93.2 1.62.517 2.071.952.456.435.686 1.004.69 1.707a2.67 2.67 0 0 1-.543 1.636c-.353.469-.846.835-1.476 1.1-.631.264-1.355.396-2.174.396-1.201 0-2.169-.252-2.902-.755-.733-.507-1.17-1.212-1.31-2.115l2.256-.218c.103.444.32.778.652 1.004.333.226.765.339 1.298.339.55 0 .99-.113 1.323-.339.337-.226.505-.505.505-.837a.872.872 0 0 0-.326-.697c-.213-.183-.545-.324-.997-.422L82.268 8.8c-.942-.196-1.638-.526-2.09-.99-.452-.47-.675-1.061-.671-1.777-.004-.605.16-1.13.492-1.573.337-.447.803-.792 1.4-1.035.6-.247 1.293-.371 2.077-.371 1.15 0 2.056.245 2.717.735.665.49 1.076 1.153 1.234 1.988Zm2.824 7.364a1.37 1.37 0 0 1-.997-.41 1.325 1.325 0 0 1-.41-.997 1.31 1.31 0 0 1 .41-.984c.277-.273.61-.41.997-.41.375 0 .701.137.978.41a1.344 1.344 0 0 1 .224 1.694 1.47 1.47 0 0 1-.512.511 1.331 1.331 0 0 1-.69.186Z" fill="#050505"/></svg>