<!-- <svg width="22" height="22" viewBox="0 0 22 22"  xmlns="http://www.w3.org/2000/svg">
<g id="heart">
<path id="Icon" d="M10.9939 4.70783C9.16115 2.5652 6.10493 1.98884 3.80863 3.95085C1.51234 5.91285 1.18905 9.19323 2.99234 11.5137C4.49166 13.443 9.02912 17.5121 10.5163 18.8291C10.6826 18.9764 10.7658 19.0501 10.8629 19.0791C10.9475 19.1043 11.0402 19.1043 11.1249 19.0791C11.2219 19.0501 11.3051 18.9764 11.4715 18.8291C12.9586 17.5121 17.4961 13.443 18.9954 11.5137C20.7987 9.19323 20.5149 5.89221 18.1791 3.95085C15.8434 2.00948 12.8266 2.5652 10.9939 4.70783Z"/>
</g>
</svg> -->

<svg width="22" height="22" viewBox="0 0 22 22" xmlns="http://www.w3.org/2000/svg">
  <path id="Icon" d="M10.9939 4.70783C9.16115 2.5652 6.10493 1.98884 3.80863 3.95085C1.51234 5.91285 1.18905 9.19323 2.99234 11.5137C4.49166 13.443 9.02912 17.5121 10.5163 18.8291C10.6826 18.9764 10.7658 19.0501 10.8629 19.0791C10.9475 19.1043 11.0402 19.1043 11.1249 19.0791C11.2219 19.0501 11.3051 18.9764 11.4715 18.8291C12.9586 17.5121 17.4961 13.443 18.9954 11.5137C20.7987 9.19323 20.5149 5.89221 18.1791 3.95085C15.8434 2.00948 12.8266 2.5652 10.9939 4.70783Z"/>
</svg>
