<svg width="44" height="44" viewBox="0 0 44 44" fill="none" xmlns="http://www.w3.org/2000/svg">
<ellipse cx="22" cy="22" rx="22" ry="22" fill="#9BB537"/>
<path d="M23.4001 22.7098C23.4939 22.6169 23.5683 22.5063 23.619 22.3844C23.6698 22.2625 23.6959 22.1318 23.6959 21.9998C23.6959 21.8678 23.6698 21.7371 23.619 21.6152C23.5683 21.4934 23.4939 21.3828 23.4001 21.2898L18.8101 16.7098C18.7164 16.6169 18.642 16.5063 18.5912 16.3844C18.5405 16.2625 18.5143 16.1318 18.5143 15.9998C18.5143 15.8678 18.5405 15.7371 18.5912 15.6152C18.642 15.4934 18.7164 15.3828 18.8101 15.2898C18.9975 15.1036 19.251 14.999 19.5151 14.999C19.7793 14.999 20.0328 15.1036 20.2201 15.2898L24.8101 19.8798C25.3719 20.4423 25.6875 21.2048 25.6875 21.9998C25.6875 22.7948 25.3719 23.5573 24.8101 24.1198L20.2201 28.7098C20.0339 28.8946 19.7825 28.9987 19.5201 28.9998C19.3885 29.0006 19.2581 28.9754 19.1362 28.9256C19.0144 28.8758 18.9036 28.8025 18.8101 28.7098C18.7164 28.6169 18.642 28.5063 18.5912 28.3844C18.5405 28.2625 18.5143 28.1318 18.5143 27.9998C18.5143 27.8678 18.5405 27.7371 18.5912 27.6153C18.642 27.4934 18.7164 27.3828 18.8101 27.2898L23.4001 22.7098Z" fill="#050505"/>
</svg>
