<svg width="44" height="44" viewBox="0 0 44 44" fill="none" xmlns="http://www.w3.org/2000/svg">
<ellipse cx="22" cy="22" rx="22" ry="22" fill="#9BB537"/>
<path d="M27.4001 22.7101C27.4939 22.6171 27.5683 22.5065 27.619 22.3847C27.6698 22.2628 27.6959 22.1321 27.6959 22.0001C27.6959 21.8681 27.6698 21.7374 27.619 21.6155C27.5683 21.4936 27.4939 21.383 27.4001 21.2901L22.8101 16.7101C22.7164 16.6171 22.642 16.5065 22.5912 16.3846C22.5405 16.2628 22.5143 16.1321 22.5143 16.0001C22.5143 15.868 22.5405 15.7373 22.5912 15.6155C22.642 15.4936 22.7164 15.383 22.8101 15.2901C22.9975 15.1038 23.251 14.9993 23.5151 14.9993C23.7793 14.9993 24.0328 15.1038 24.2201 15.2901L28.8101 19.8801C29.3719 20.4426 29.6875 21.2051 29.6875 22.0001C29.6875 22.7951 29.3719 23.5576 28.8101 24.1201L24.2201 28.7101C24.0339 28.8948 23.7825 28.999 23.5201 29.0001C23.3885 29.0008 23.2581 28.9756 23.1362 28.9259C23.0144 28.8761 22.9036 28.8028 22.8101 28.7101C22.7164 28.6171 22.642 28.5065 22.5912 28.3847C22.5405 28.2628 22.5143 28.1321 22.5143 28.0001C22.5143 27.8681 22.5405 27.7374 22.5912 27.6155C22.642 27.4936 22.7164 27.383 22.8101 27.2901L27.4001 22.7101Z" fill="#050505"/>
<path d="M20.4001 22.7101C20.4939 22.6171 20.5683 22.5065 20.619 22.3847C20.6698 22.2628 20.6959 22.1321 20.6959 22.0001C20.6959 21.8681 20.6698 21.7374 20.619 21.6155C20.5683 21.4936 20.4939 21.383 20.4001 21.2901L15.8101 16.7101C15.7164 16.6171 15.642 16.5065 15.5912 16.3846C15.5405 16.2628 15.5143 16.1321 15.5143 16.0001C15.5143 15.868 15.5405 15.7373 15.5912 15.6155C15.642 15.4936 15.7164 15.383 15.8101 15.2901C15.9975 15.1038 16.251 14.9993 16.5151 14.9993C16.7793 14.9993 17.0328 15.1038 17.2201 15.2901L21.8101 19.8801C22.3719 20.4426 22.6875 21.2051 22.6875 22.0001C22.6875 22.7951 22.3719 23.5576 21.8101 24.1201L17.2201 28.7101C17.0339 28.8948 16.7825 28.999 16.5201 29.0001C16.3885 29.0008 16.2581 28.9756 16.1362 28.9259C16.0144 28.8761 15.9036 28.8028 15.8101 28.7101C15.7164 28.6171 15.642 28.5065 15.5912 28.3847C15.5405 28.2628 15.5143 28.1321 15.5143 28.0001C15.5143 27.8681 15.5405 27.7374 15.5912 27.6155C15.642 27.4936 15.7164 27.383 15.8101 27.2901L20.4001 22.7101Z" fill="#050505"/>
</svg>
