<svg width="13" height="14" viewBox="0 0 13 14" fill="none" xmlns="http://www.w3.org/2000/svg">
<path d="M10.4001 7.71007C10.4938 7.61711 10.5682 7.50651 10.619 7.38465C10.6697 7.26279 10.6959 7.13208 10.6959 7.00007C10.6959 6.86806 10.6697 6.73735 10.619 6.6155C10.5682 6.49364 10.4938 6.38303 10.4001 6.29007L5.81008 1.71006C5.71635 1.6171 5.64196 1.5065 5.59119 1.38464C5.54042 1.26278 5.51428 1.13207 5.51428 1.00006C5.51428 0.86805 5.54042 0.737344 5.59119 0.615484C5.64196 0.493625 5.71635 0.383024 5.81008 0.290061C5.99744 0.103809 6.25089 -0.000732422 6.51508 -0.000732422C6.77927 -0.000732422 7.03272 0.103809 7.22008 0.290061L11.8101 4.88007C12.3719 5.44257 12.6874 6.20507 12.6874 7.00007C12.6874 7.79508 12.3719 8.55757 11.8101 9.12008L7.22008 13.7101C7.03382 13.8948 6.78242 13.999 6.52008 14.0001C6.38847 14.0008 6.25801 13.9756 6.13617 13.9259C6.01434 13.8761 5.90352 13.8028 5.81008 13.7101C5.71635 13.6171 5.64196 13.5065 5.59119 13.3847C5.54042 13.2628 5.51428 13.1321 5.51428 13.0001C5.51428 12.8681 5.54042 12.7374 5.59119 12.6155C5.64196 12.4936 5.71635 12.383 5.81008 12.2901L10.4001 7.71007Z" fill="#050505"/>
<path d="M4.8858 7.71081C4.97953 7.61784 5.05392 7.50724 5.10469 7.38538C5.15546 7.26352 5.1816 7.13282 5.1816 7.0008C5.1816 6.86879 5.15546 6.73809 5.10469 6.61623C5.05392 6.49437 4.97953 6.38377 4.8858 6.2908L0.295798 1.7108C0.20207 1.61783 0.127675 1.50723 0.0769062 1.38537C0.0261375 1.26351 0 1.13281 0 1.00079C0 0.868782 0.0261375 0.738076 0.0769062 0.616217C0.127675 0.494357 0.20207 0.383756 0.295798 0.290793C0.483161 0.104542 0.736613 0 1.0008 0C1.26498 0 1.51844 0.104542 1.7058 0.290793L6.2958 4.8808C6.8576 5.4433 7.17316 6.2058 7.17316 7.0008C7.17316 7.79581 6.8576 8.55831 6.2958 9.12081L1.7058 13.7108C1.51954 13.8956 1.26814 13.9997 1.0058 14.0008C0.874192 14.0016 0.743729 13.9764 0.621891 13.9266C0.500054 13.8768 0.389238 13.8035 0.295798 13.7108C0.20207 13.6179 0.127675 13.5073 0.0769062 13.3854C0.0261375 13.2635 0 13.1328 0 13.0008C0 12.8688 0.0261375 12.7381 0.0769062 12.6162C0.127675 12.4944 0.20207 12.3838 0.295798 12.2908L4.8858 7.71081Z" fill="#050505"/>
</svg>
