<svg width="92" height="17" viewBox="0 0 92 17" fill="none" xmlns="http://www.w3.org/2000/svg">
<path d="M6.23424 3.18182V4.97159H0.590059V3.18182H6.23424ZM1.98353 0.829545H4.29745V10.0469C4.29745 10.358 4.34432 10.5966 4.43807 10.7628C4.53608 10.9247 4.66392 11.0355 4.82159 11.0952C4.97926 11.1548 5.15398 11.1847 5.34574 11.1847C5.49063 11.1847 5.62273 11.174 5.74205 11.1527C5.86563 11.1314 5.95938 11.1122 6.0233 11.0952L6.41321 12.9041C6.28963 12.9467 6.11279 12.9936 5.88267 13.0447C5.65682 13.0959 5.37983 13.1257 5.05171 13.1342C4.47216 13.1513 3.95014 13.0639 3.48566 12.8722C3.02117 12.6761 2.65256 12.3736 2.37983 11.9645C2.11137 11.5554 1.97926 11.044 1.98353 10.4304V0.829545ZM10.2747 13.1982C9.65255 13.1982 9.09218 13.0874 8.5936 12.8658C8.09929 12.6399 7.70724 12.3075 7.41747 11.8686C7.13196 11.4297 6.9892 10.8885 6.9892 10.245C6.9892 9.69105 7.09147 9.23295 7.29602 8.87074C7.50056 8.50852 7.77968 8.21875 8.13338 8.00142C8.48707 7.78409 8.88551 7.62003 9.32869 7.50923C9.77613 7.39418 10.2385 7.31108 10.7158 7.25994C11.291 7.20028 11.7577 7.14702 12.1156 7.10014C12.4736 7.04901 12.7335 6.9723 12.8955 6.87003C13.0616 6.76349 13.1447 6.59943 13.1447 6.37784V6.33949C13.1447 5.85795 13.002 5.48509 12.7165 5.22088C12.431 4.95668 12.0197 4.82457 11.4828 4.82457C10.916 4.82457 10.4665 4.94815 10.1341 5.19531C9.80596 5.44247 9.58437 5.73437 9.46931 6.07102L7.3088 5.7642C7.47926 5.16761 7.76051 4.66903 8.15255 4.26847C8.5446 3.86364 9.024 3.56108 9.59076 3.3608C10.1575 3.15625 10.7839 3.05398 11.47 3.05398C11.943 3.05398 12.4139 3.10938 12.8827 3.22017C13.3514 3.33097 13.7797 3.5142 14.1675 3.76989C14.5553 4.02131 14.8663 4.36435 15.1007 4.79901C15.3393 5.23366 15.4587 5.77699 15.4587 6.42898V13H13.2342V11.6513H13.1575C13.0169 11.924 12.8187 12.1797 12.5631 12.4183C12.3116 12.6527 11.9942 12.8423 11.6106 12.9872C11.2314 13.1278 10.7861 13.1982 10.2747 13.1982ZM10.8756 11.4979C11.3401 11.4979 11.7428 11.4062 12.0837 11.223C12.4246 11.0355 12.6866 10.7884 12.8699 10.4815C13.0574 10.1747 13.1511 9.8402 13.1511 9.47798V8.32102C13.0787 8.38068 12.9551 8.43608 12.7804 8.48722C12.6099 8.53835 12.4182 8.5831 12.2051 8.62145C11.992 8.6598 11.7811 8.69389 11.5723 8.72372C11.3635 8.75355 11.1824 8.77912 11.029 8.80043C10.6838 8.8473 10.3749 8.92401 10.1021 9.03054C9.8294 9.13707 9.6142 9.28622 9.45653 9.47798C9.29886 9.66548 9.22002 9.90838 9.22002 10.2067C9.22002 10.6328 9.37556 10.9545 9.68664 11.1719C9.99772 11.3892 10.394 11.4979 10.8756 11.4979ZM24.8253 5.77699L22.7159 6.0071C22.6563 5.79403 22.5519 5.59375 22.4027 5.40625C22.2578 5.21875 22.0618 5.06747 21.8147 4.95241C21.5675 4.83736 21.2649 4.77983 20.907 4.77983C20.4254 4.77983 20.0206 4.88423 19.6925 5.09304C19.3686 5.30185 19.2088 5.57244 19.2131 5.90483C19.2088 6.19034 19.3132 6.42259 19.5263 6.60156C19.7436 6.78054 20.1016 6.92756 20.6002 7.04261L22.2749 7.40057C23.2039 7.60085 23.8942 7.91832 24.3459 8.35298C24.8019 8.78764 25.032 9.35653 25.0362 10.0597C25.032 10.6776 24.8509 11.223 24.4929 11.696C24.1392 12.1648 23.647 12.5312 23.0164 12.7955C22.3857 13.0597 21.6612 13.1918 20.8431 13.1918C19.6414 13.1918 18.674 12.9403 17.9411 12.4375C17.2081 11.9304 16.7713 11.2251 16.6307 10.3217L18.8871 10.1044C18.9894 10.5476 19.2067 10.8821 19.5391 11.108C19.8715 11.3338 20.304 11.4467 20.8367 11.4467C21.3864 11.4467 21.8274 11.3338 22.1598 11.108C22.4965 10.8821 22.6648 10.603 22.6648 10.2706C22.6648 9.98935 22.5561 9.7571 22.3388 9.57386C22.1257 9.39062 21.7933 9.25 21.3416 9.15199L19.6669 8.80043C18.7252 8.6044 18.0284 8.27415 17.5767 7.80966C17.125 7.34091 16.9013 6.74858 16.9056 6.03267C16.9013 5.42756 17.0654 4.90341 17.3978 4.46023C17.7344 4.01278 18.201 3.66761 18.7976 3.42472C19.3985 3.17756 20.0909 3.05398 20.875 3.05398C22.0256 3.05398 22.9311 3.29901 23.5916 3.78906C24.2564 4.27912 24.6676 4.94176 24.8253 5.77699ZM31.127 3.18182V4.97159H25.4828V3.18182H31.127ZM26.8763 0.829545H29.1902V10.0469C29.1902 10.358 29.2371 10.5966 29.3308 10.7628C29.4288 10.9247 29.5567 11.0355 29.7143 11.0952C29.872 11.1548 30.0467 11.1847 30.2385 11.1847C30.3834 11.1847 30.5155 11.174 30.6348 11.1527C30.7584 11.1314 30.8521 11.1122 30.916 11.0952L31.3059 12.9041C31.1824 12.9467 31.0055 12.9936 30.7754 13.0447C30.5496 13.0959 30.2726 13.1257 29.9444 13.1342C29.3649 13.1513 28.8429 13.0639 28.3784 12.8722C27.9139 12.6761 27.5453 12.3736 27.2726 11.9645C27.0041 11.5554 26.872 11.044 26.8763 10.4304V0.829545ZM33.7804 16.6818C33.465 16.6818 33.1731 16.6563 32.9047 16.6051C32.6405 16.5582 32.4295 16.5028 32.2718 16.4389L32.8088 14.6364C33.1454 14.7344 33.4459 14.7813 33.7101 14.777C33.9743 14.7727 34.2065 14.6896 34.4068 14.5277C34.6113 14.37 34.7839 14.1058 34.9245 13.7351L35.1227 13.2045L31.5623 3.18182H34.0169L36.2797 10.5966H36.3819L38.6511 3.18182H41.112L37.1809 14.1889C36.9977 14.7088 36.7548 15.1541 36.4522 15.5249C36.1497 15.8999 35.779 16.1854 35.34 16.3814C34.9054 16.5817 34.3855 16.6818 33.7804 16.6818Z" fill="#9BB537"/>
<path d="M46.896 3.18182V4.97159H41.2518V3.18182H46.896ZM42.6452 0.829545H44.9592V10.0469C44.9592 10.358 45.006 10.5966 45.0998 10.7628C45.1978 10.9247 45.3256 11.0355 45.4833 11.0952C45.641 11.1548 45.8157 11.1847 46.0075 11.1847C46.1523 11.1847 46.2845 11.174 46.4038 11.1527C46.5273 11.1314 46.6211 11.1122 46.685 11.0952L47.0749 12.9041C46.9514 12.9467 46.7745 12.9936 46.5444 13.0447C46.3185 13.0959 46.0416 13.1257 45.7134 13.1342C45.1339 13.1513 44.6119 13.0639 44.1474 12.8722C43.6829 12.6761 43.3143 12.3736 43.0416 11.9645C42.7731 11.5554 42.641 11.044 42.6452 10.4304V0.829545ZM48.1111 13V3.18182H50.3548V4.81818H50.457C50.636 4.25142 50.9428 3.81463 51.3775 3.50781C51.8164 3.19673 52.3171 3.04119 52.8796 3.04119C53.0075 3.04119 53.1502 3.04758 53.3079 3.06037C53.4698 3.06889 53.604 3.08381 53.7106 3.10511V5.23366C53.6126 5.19957 53.457 5.16974 53.244 5.14418C53.0352 5.11435 52.8327 5.09943 52.6367 5.09943C52.2148 5.09943 51.8356 5.19105 51.4989 5.37429C51.1665 5.55327 50.9045 5.80256 50.7127 6.12216C50.5209 6.44176 50.4251 6.81037 50.4251 7.22798V13H48.1111ZM58.4702 13.1918C57.4858 13.1918 56.6356 12.9872 55.9197 12.5781C55.2081 12.1648 54.6605 11.581 54.277 10.8267C53.8935 10.0682 53.7017 9.17543 53.7017 8.14844C53.7017 7.13849 53.8935 6.25213 54.277 5.48935C54.6648 4.7223 55.206 4.12571 55.9006 3.69957C56.5952 3.26918 57.4112 3.05398 58.3487 3.05398C58.9538 3.05398 59.5248 3.15199 60.0618 3.34801C60.603 3.53977 61.0802 3.83807 61.4936 4.2429C61.9112 4.64773 62.2393 5.16335 62.478 5.78977C62.7166 6.41193 62.8359 7.15341 62.8359 8.0142V8.72372H54.7883V7.16406H60.6179C60.6136 6.72088 60.5177 6.3267 60.3302 5.98153C60.1427 5.6321 59.8807 5.35724 59.544 5.15696C59.2116 4.95668 58.8239 4.85653 58.3807 4.85653C57.9077 4.85653 57.4922 4.97159 57.1342 5.2017C56.7763 5.42756 56.4971 5.72585 56.2969 6.09659C56.1008 6.46307 56.0007 6.86577 55.9964 7.30469V8.66619C55.9964 9.23722 56.1008 9.72727 56.3096 10.1364C56.5185 10.5412 56.8104 10.8523 57.1854 11.0696C57.5604 11.2827 57.9993 11.3892 58.5021 11.3892C58.8388 11.3892 59.1435 11.3423 59.4162 11.2486C59.6889 11.1506 59.9254 11.0078 60.1257 10.8203C60.326 10.6328 60.4773 10.4006 60.5795 10.1236L62.74 10.3665C62.6037 10.9375 62.3437 11.4361 61.9602 11.8622C61.581 12.2841 61.0952 12.6122 60.5028 12.8466C59.9105 13.0767 59.2329 13.1918 58.4702 13.1918ZM66.8988 13.1982C66.2766 13.1982 65.7162 13.0874 65.2177 12.8658C64.7233 12.6399 64.3313 12.3075 64.0415 11.8686C63.756 11.4297 63.6133 10.8885 63.6133 10.245C63.6133 9.69105 63.7155 9.23295 63.9201 8.87074C64.1246 8.50852 64.4037 8.21875 64.7574 8.00142C65.1111 7.78409 65.5096 7.62003 65.9527 7.50923C66.4002 7.39418 66.8626 7.31108 67.3398 7.25994C67.9151 7.20028 68.3817 7.14702 68.7397 7.10014C69.0976 7.04901 69.3576 6.9723 69.5195 6.87003C69.6857 6.76349 69.7688 6.59943 69.7688 6.37784V6.33949C69.7688 5.85795 69.626 5.48509 69.3405 5.22088C69.055 4.95668 68.6438 4.82457 68.1069 4.82457C67.5401 4.82457 67.0905 4.94815 66.7581 5.19531C66.43 5.44247 66.2084 5.73437 66.0934 6.07102L63.9329 5.7642C64.1033 5.16761 64.3846 4.66903 64.7766 4.26847C65.1687 3.86364 65.6481 3.56108 66.2148 3.3608C66.7816 3.15625 67.408 3.05398 68.0941 3.05398C68.5671 3.05398 69.038 3.10938 69.5067 3.22017C69.9755 3.33097 70.4037 3.5142 70.7915 3.76989C71.1793 4.02131 71.4904 4.36435 71.7248 4.79901C71.9634 5.23366 72.0827 5.77699 72.0827 6.42898V13H69.8583V11.6513H69.7816C69.641 11.924 69.4428 12.1797 69.1871 12.4183C68.9357 12.6527 68.6182 12.8423 68.2347 12.9872C67.8554 13.1278 67.4101 13.1982 66.8988 13.1982ZM67.4996 11.4979C67.9641 11.4979 68.3668 11.4062 68.7077 11.223C69.0486 11.0355 69.3107 10.7884 69.4939 10.4815C69.6814 10.1747 69.7752 9.8402 69.7752 9.47798V8.32102C69.7027 8.38068 69.5792 8.43608 69.4045 8.48722C69.234 8.53835 69.0422 8.5831 68.8292 8.62145C68.6161 8.6598 68.4052 8.69389 68.1964 8.72372C67.9876 8.75355 67.8064 8.77912 67.653 8.80043C67.3079 8.8473 66.9989 8.92401 66.7262 9.03054C66.4535 9.13707 66.2383 9.28622 66.0806 9.47798C65.9229 9.66548 65.8441 9.90838 65.8441 10.2067C65.8441 10.6328 65.9996 10.9545 66.3107 11.1719C66.6218 11.3892 67.0181 11.4979 67.4996 11.4979ZM78.5921 3.18182V4.97159H72.9479V3.18182H78.5921ZM74.3414 0.829545H76.6553V10.0469C76.6553 10.358 76.7022 10.5966 76.796 10.7628C76.894 10.9247 77.0218 11.0355 77.1795 11.0952C77.3372 11.1548 77.5119 11.1847 77.7036 11.1847C77.8485 11.1847 77.9806 11.174 78.0999 11.1527C78.2235 11.1314 78.3173 11.1122 78.3812 11.0952L78.7711 12.9041C78.6475 12.9467 78.4707 12.9936 78.2406 13.0447C78.0147 13.0959 77.7377 13.1257 77.4096 13.1342C76.83 13.1513 76.308 13.0639 75.8435 12.8722C75.3791 12.6761 75.0104 12.3736 74.7377 11.9645C74.4693 11.5554 74.3372 11.044 74.3414 10.4304V0.829545ZM87.4266 5.77699L85.3173 6.0071C85.2576 5.79403 85.1532 5.59375 85.0041 5.40625C84.8592 5.21875 84.6631 5.06747 84.416 4.95241C84.1688 4.83736 83.8663 4.77983 83.5083 4.77983C83.0268 4.77983 82.622 4.88423 82.2938 5.09304C81.97 5.30185 81.8102 5.57244 81.8144 5.90483C81.8102 6.19034 81.9146 6.42259 82.1276 6.60156C82.345 6.78054 82.7029 6.92756 83.2015 7.04261L84.8762 7.40057C85.8052 7.60085 86.4955 7.91832 86.9472 8.35298C87.4032 8.78764 87.6333 9.35653 87.6376 10.0597C87.6333 10.6776 87.4522 11.223 87.0943 11.696C86.7406 12.1648 86.2484 12.5312 85.6177 12.7955C84.987 13.0597 84.2626 13.1918 83.4444 13.1918C82.2427 13.1918 81.2754 12.9403 80.5424 12.4375C79.8095 11.9304 79.3727 11.2251 79.232 10.3217L81.4884 10.1044C81.5907 10.5476 81.808 10.8821 82.1404 11.108C82.4728 11.3338 82.9053 11.4467 83.438 11.4467C83.9877 11.4467 84.4288 11.3338 84.7612 11.108C85.0978 10.8821 85.2661 10.603 85.2661 10.2706C85.2661 9.98935 85.1575 9.7571 84.9401 9.57386C84.7271 9.39062 84.3947 9.25 83.943 9.15199L82.2683 8.80043C81.3265 8.6044 80.6298 8.27415 80.1781 7.80966C79.7264 7.34091 79.5026 6.74858 79.5069 6.03267C79.5026 5.42756 79.6667 4.90341 79.9991 4.46023C80.3357 4.01278 80.8023 3.66761 81.3989 3.42472C81.9998 3.17756 82.6923 3.05398 83.4764 3.05398C84.6269 3.05398 85.5325 3.29901 86.193 3.78906C86.8577 4.27912 87.269 4.94176 87.4266 5.77699ZM90.251 13.1406C89.8632 13.1406 89.5309 13.0043 89.2539 12.7315C88.9769 12.4588 88.8405 12.1264 88.8448 11.7344C88.8405 11.3509 88.9769 11.0227 89.2539 10.75C89.5309 10.4773 89.8632 10.3409 90.251 10.3409C90.626 10.3409 90.952 10.4773 91.229 10.75C91.5103 11.0227 91.653 11.3509 91.6573 11.7344C91.653 11.9943 91.5848 12.2308 91.4527 12.4439C91.3249 12.657 91.1544 12.8274 90.9414 12.9553C90.7326 13.0788 90.5024 13.1406 90.251 13.1406Z" fill="#050505"/>
</svg>
