<svg aria-hidden="true" style="position: absolute; width: 0; height: 0; overflow: hidden;" version="1.1" xmlns="http://www.w3.org/2000/svg" xmlns:xlink="http://www.w3.org/1999/xlink">
<defs>
<symbol id="icon-arrow-up" viewBox="0 0 32 32">
<path d="M9.776 10.246c-0.521 0.521-1.365 0.521-1.886 0s-0.521-1.365 0-1.886l6.221-6.221c1.041-1.041 2.73-1.041 3.771 0l6.225 6.225c0.521 0.521 0.521 1.365 0 1.886s-1.365 0.521-1.886 0l-4.888-4.888v23.971c0 0.736-0.597 1.333-1.333 1.333s-1.333-0.597-1.333-1.333v-23.978l-4.891 4.891z"></path>
</symbol>
<symbol id="icon-arrow-left" viewBox="0 0 32 32">
<path d="M18.776 23.63c-0.473 0.474-1.241 0.474-1.715 0l-5.926-5.932c-0.946-0.947-0.946-2.482 0.001-3.429l5.929-5.929c0.474-0.473 1.241-0.473 1.715 0s0.473 1.241 0 1.715l-5.075 5.075c-0.473 0.473-0.473 1.241 0 1.715l5.071 5.071c0.474 0.473 0.474 1.241 0 1.715z"></path>
</symbol>
<symbol id="icon-arrow-right" viewBox="0 0 32 32">
<path d="M13.224 23.63c0.473 0.474 1.241 0.474 1.715 0l5.926-5.932c0.946-0.947 0.946-2.482-0.001-3.429l-5.929-5.929c-0.474-0.473-1.241-0.473-1.715 0s-0.473 1.241 0 1.715l5.075 5.075c0.473 0.473 0.473 1.241 0 1.715l-5.071 5.071c-0.474 0.473-0.474 1.241 0 1.715z"></path>
</symbol>
<symbol id="icon-double-arrow-right" viewBox="0 0 32 32">
<path d="M16.391 9.724c0.241-0.241 0.575-0.39 0.943-0.39s0.701 0.149 0.943 0.39l5.333 5.333c0.241 0.241 0.39 0.575 0.39 0.943s-0.149 0.701-0.39 0.943l-5.333 5.333c-0.24 0.232-0.566 0.374-0.926 0.374-0.736 0-1.333-0.597-1.333-1.333 0-0.36 0.143-0.687 0.375-0.927l4.39-4.39-4.391-4.391c-0.241-0.241-0.39-0.575-0.39-0.943s0.149-0.701 0.39-0.943v0z"></path>
<path d="M8.391 9.724c0.241-0.241 0.575-0.39 0.943-0.39s0.701 0.149 0.943 0.39l5.333 5.333c0.241 0.241 0.39 0.575 0.39 0.943s-0.149 0.701-0.39 0.943l-5.333 5.333c-0.24 0.232-0.566 0.374-0.926 0.374-0.736 0-1.333-0.597-1.333-1.333 0-0.36 0.143-0.687 0.375-0.927l4.39-4.39-4.391-4.391c-0.241-0.241-0.39-0.575-0.39-0.943s0.149-0.701 0.39-0.943v0z"></path>
</symbol>
<symbol id="icon-double-arrow-left" viewBox="0 0 32 32">
<path d="M15.609 22.276c-0.241 0.241-0.575 0.39-0.943 0.39s-0.701-0.149-0.943-0.39l-5.333-5.333c-0.241-0.241-0.39-0.575-0.39-0.943s0.149-0.701 0.39-0.943l5.333-5.333c0.24-0.232 0.566-0.374 0.926-0.374 0.736 0 1.333 0.597 1.333 1.333 0 0.36-0.143 0.687-0.375 0.927l-4.39 4.39 4.391 4.391c0.241 0.241 0.39 0.575 0.39 0.943s-0.149 0.701-0.39 0.943v0z"></path>
<path d="M23.609 22.276c-0.241 0.241-0.575 0.39-0.943 0.39s-0.701-0.149-0.943-0.39l-5.333-5.333c-0.241-0.241-0.39-0.575-0.39-0.943s0.149-0.701 0.39-0.943l5.333-5.333c0.24-0.232 0.566-0.374 0.926-0.374 0.736 0 1.333 0.597 1.333 1.333 0 0.36-0.143 0.687-0.375 0.927l-4.39 4.39 4.391 4.391c0.241 0.241 0.39 0.575 0.39 0.943s-0.149 0.701-0.39 0.943v0z"></path>
</symbol>
<symbol id="icon-close" viewBox="0 0 32 32">
<path d="M27.661 4.438c-0.521-0.521-1.365-0.521-1.886 0l-9.726 9.726-9.726-9.726c-0.521-0.521-1.365-0.521-1.886 0s-0.521 1.365 0 1.886l9.726 9.726-9.726 9.726c-0.521 0.521-0.521 1.365 0 1.886s1.365 0.521 1.886 0l9.726-9.726 9.726 9.726c0.521 0.521 1.365 0.521 1.886 0s0.521-1.365 0-1.886l-9.726-9.726 9.726-9.726c0.521-0.521 0.521-1.365 0-1.886z"></path>
</symbol>
<symbol id="icon-basket" viewBox="0 0 32 32">
<path stroke-linejoin="round" stroke-linecap="round" stroke-miterlimit="4" stroke-width="2.6667" d="M12 29.333c0.736 0 1.333-0.597 1.333-1.333s-0.597-1.333-1.333-1.333c-0.736 0-1.333 0.597-1.333 1.333s0.597 1.333 1.333 1.333z"></path>
<path stroke-linejoin="round" stroke-linecap="round" stroke-miterlimit="4" stroke-width="2.6667" d="M26.667 29.333c0.736 0 1.333-0.597 1.333-1.333s-0.597-1.333-1.333-1.333c-0.736 0-1.333 0.597-1.333 1.333s0.597 1.333 1.333 1.333z"></path>
<path stroke-linejoin="round" stroke-linecap="round" stroke-miterlimit="4" stroke-width="2.4" d="M1.333 1.333h5.333l3.573 17.853c0.122 0.614 0.456 1.165 0.943 1.558s1.098 0.601 1.723 0.589h12.96c0.626 0.012 1.236-0.197 1.723-0.589s0.821-0.944 0.943-1.558l2.133-11.187h-22.667"></path>
</symbol>
<symbol id="icon-lines" viewBox="0 0 32 32">
<path stroke-linejoin="round" stroke-linecap="round" stroke-miterlimit="4" stroke-width="2" d="M28 13.333h-24"></path>
<path stroke-linejoin="round" stroke-linecap="round" stroke-miterlimit="4" stroke-width="2" d="M28 8h-24"></path>
<path stroke-linejoin="round" stroke-linecap="round" stroke-miterlimit="4" stroke-width="2" d="M28 18.667h-24"></path>
<path stroke-linejoin="round" stroke-linecap="round" stroke-miterlimit="4" stroke-width="2" d="M28 24h-24"></path>
</symbol>
</defs>
</svg>
